<?xml version="1.0" standalone="no"?>
<!DOCTYPE svg PUBLIC "-//W3C//DTD SVG 20010904//EN"
 "http://www.w3.org/TR/2001/REC-SVG-20010904/DTD/svg10.dtd">
<svg version="1.0" xmlns="http://www.w3.org/2000/svg"
 width="364.000000pt" height="364.000000pt" viewBox="0 0 364.000000 364.000000"
 preserveAspectRatio="xMidYMid meet">
<metadata>
Created by potrace 1.11, written by Peter Selinger 2001-2013
</metadata>
<g transform="translate(0.000000,364.000000) scale(0.100000,-0.100000)"
fill="#000000" stroke="none">
<path d="M1590 3625 c-47 -7 -110 -17 -140 -24 -30 -6 -65 -13 -76 -15 -60
-12 -252 -83 -349 -131 -367 -178 -659 -470 -841 -840 -49 -100 -120 -292
-131 -355 -2 -14 -9 -42 -14 -64 -36 -134 -46 -478 -19 -646 73 -463 315 -878
676 -1159 43 -34 84 -65 89 -69 6 -5 44 -29 85 -54 215 -130 427 -207 683
-248 143 -22 431 -20 562 5 50 9 103 19 118 22 15 2 81 22 146 43 473 153 860
489 1077 935 47 97 119 290 130 349 4 24 12 56 20 89 32 133 39 492 11 647
-72 396 -236 718 -502 986 -178 180 -408 333 -620 413 -33 13 -69 27 -80 31
-57 24 -210 61 -330 81 -98 16 -393 18 -495 4z"/>
</g>
</svg>
